<?xml version="1.0" standalone="no"?>
<!DOCTYPE svg PUBLIC "-//W3C//DTD SVG 20010904//EN"
 "http://www.w3.org/TR/2001/REC-SVG-20010904/DTD/svg10.dtd">
<svg version="1.0" xmlns="http://www.w3.org/2000/svg"
 width="512.000000pt" height="512.000000pt" viewBox="0 0 512.000000 512.000000"
 preserveAspectRatio="xMidYMid meet">
<metadata>
Created by potrace 1.14, written by Peter Selinger 2001-2017
</metadata>
<g transform="translate(0.000000,512.000000) scale(0.100000,-0.100000)"
fill="#000000" stroke="none">
<path d="M2045 4922 c-264 -109 -729 -302 -1034 -427 -305 -126 -568 -238
-585 -250 -16 -11 -39 -36 -50 -55 -20 -33 -21 -49 -20 -315 7 -1538 532
-2775 1505 -3542 117 -92 323 -226 411 -268 176 -84 360 -84 533 -1 82 39 261
166 407 287 294 245 530 510 752 844 129 195 175 274 274 471 277 554 455
1211 511 1889 19 222 25 546 11 595 -24 90 5 75 -1115 538 -684 282 -1045 426
-1075 429 -40 3 -97 -18 -525 -195z m1355 -512 c454 -187 869 -359 924 -382
l98 -41 -6 -156 c-28 -631 -133 -1149 -343 -1681 -195 -494 -470 -923 -818
-1278 -161 -165 -258 -251 -423 -375 -154 -115 -204 -139 -293 -139 -84 0
-130 20 -279 119 -296 197 -559 449 -783 751 -210 284 -397 650 -522 1027
-153 458 -232 937 -251 1526 l-7 205 174 72 c96 40 509 211 919 381 410 170
754 309 765 310 12 1 392 -152 845 -339z"/>
<path d="M2382 3971 c-210 -52 -389 -195 -492 -392 -60 -116 -80 -206 -87
-391 -6 -156 -6 -158 -32 -175 -32 -20 -45 -37 -71 -85 -19 -36 -20 -58 -20
-615 0 -541 2 -581 19 -619 22 -49 78 -97 130 -113 54 -16 1408 -16 1462 0 52
16 108 64 130 113 17 38 19 78 19 619 0 555 -1 579 -20 616 -10 22 -37 54 -58
72 l-39 34 -6 155 c-7 183 -28 275 -87 389 -81 155 -189 261 -345 336 -49 24
-122 50 -162 59 -95 21 -248 19 -341 -3z m341 -363 c31 -15 82 -50 112 -79 99
-93 140 -215 133 -396 l-3 -78 -405 0 -405 0 -3 85 c-6 168 28 279 114 371 91
96 174 130 309 126 72 -2 101 -8 148 -29z m-62 -956 c128 -67 158 -241 59
-338 l-29 -29 -1 -162 0 -163 -130 0 -130 0 0 163 -1 162 -29 29 c-131 128
-27 366 160 366 33 0 64 -9 101 -28z"/>
</g>
</svg>
